<?xml version="1.0" encoding="utf-8"?>
<!-- Generator: Adobe Illustrator 19.0.0, SVG Export Plug-In . SVG Version: 6.00 Build 0)  -->
<svg version="1.1" id="Calque_1" xmlns="http://www.w3.org/2000/svg" xmlns:xlink="http://www.w3.org/1999/xlink" x="0px" y="0px"
	 viewBox="0 0 700.3 700.3" style="enable-background:new 0 0 700.3 700.3;" xml:space="preserve">
<style type="text/css">
	.st0{fill:#FFFFFF;}
	.st1{fill:#E7E6C0;}
	.st2{fill:#F37047;}
	.st3{fill:#F6977E;}
	.st4{fill:#F4F4F2;}
	.st5{fill:#FFFDFD;}
	.st6{fill:#FBFCFC;}
	.st7{fill:#FDF0E8;}
</style>
<g id="XMLID_2_">
	<path id="XMLID_20_" class="st0" d="M350.1,950.3c-260.4,0-520.7-0.2-781.1,0.5c-16.9,0-20.2-3.3-20.2-20.2
		c0.6-413.9,0.6-827.9,0-1241.8c0-16.9,3.3-20.2,20.2-20.2c520.7,0.6,1041.4,0.6,1562.1,0c16.9,0,20.2,3.3,20.2,20.2
		c-0.6,413.9-0.6,827.9,0,1241.8c0,16.9-3.3,20.2-20.2,20.2C870.8,950.1,610.5,950.3,350.1,950.3z"/>
	<path id="XMLID_19_" class="st1" d="M600.9,343.1c58.9,1.1,47.2-7.9,55.3,53.5c2,14.9-2,23.8-19.4,22.5
		c-12.2-0.9-24.6,0.5-36.8-0.3c-15.3-1-27.2,0-27.7,20.2c-0.2,9.6-8.9,12.7-18,12.6c-11.5-0.1-22.9,0.2-34.4,0
		c-54.9-0.9-45.7,9.3-52.3-50.4c-1.5-13.5,1.9-27.6,3.2-41.5c0.8-8.9,3.7-16.4,14.6-15.9c12.7,0.6,10.2,9.9,10.1,18
		c-0.2,14.6-4.8,28.8-2.3,43.9c2.6,15.5,8.8,23.3,25.5,22.5c15.8-0.7,29.2-1.7,32.6-21.6c2.1-12.4,3.2-24.3,0.1-36.4
		c-5-19.5,0.2-30,22.5-27.3C582.8,344,591.9,343.1,600.9,343.1z"/>
	<path id="XMLID_18_" class="st2" d="M505.2,265.5c-7.7-7.7-18.4-5.9-27.7-8.5c-37.4-10.4-68.7-26.3-77.3-69.3
		c-3.5-17.3-16.8-26.8-34.1-31.8c-44.7-12.8-90.5-14.2-136.5-13.8c-43.4,0.3-86.9,0.6-130.3,0.7c-14.2,0-27.7-3-40.1-10.1
		c-7-4-15.7-7.9-13.8-18c2.3-12.1,12.7-8.2,20.1-7.6c50.6,4,101.3,7.6,151.8,13.1c36.6,4,72.8,11.4,109.4,16.3
		c43.6,5.9,79.6,23.9,104.7,61.2c4.6,1.4,9,3.4,13.3,5.7c15,11.5,32.5,18.3,48.9,27.1c9.3,5,19.1,9.7,21.3,21.7
		C514.1,258.6,515.2,266.1,505.2,265.5z"/>
	<path id="XMLID_17_" class="st1" d="M294.1,414.7c-24-5.4-46.1-2.7-68-2.5c-16.1,0.1-22.9-5.7-20.9-21.7c1-8.1,2.4-16.3,2.4-24.4
		c0.2-17.8,8.2-24,26.2-22.9c24.5,1.5,49.3,0.5,73.9,0.3c9.5-0.1,15.6,2.6,16.2,13.5c0.7,12.5-7.2,12.7-15.9,12.6
		c-14.8-0.1-29.6-0.4-44.3,0.2c-7.6,0.3-21.1-3.6-21,6.1c0.2,12.5,14.1,6.6,22.1,7.1c14.7,0.9,29.6,1.1,44.3,0
		c15.7-1.1,20.8,5.9,19,20.3c-0.4,3.2-0.2,6.6-0.3,9.8c-1.5,37.1-2.9,38.5-39.6,38.4c-17.2,0-34.5-0.2-51.7,0
		c-11.2,0.2-16.9-4.5-16.4-16.1c0.5-11.8,8.7-12,17.3-12.2c17.2-0.4,34.3-1,51.4-1.8C289.9,421.5,290.7,419.3,294.1,414.7z"/>
	<path id="XMLID_16_" class="st1" d="M397.8,343.6c54,0,54,0,53.9,54.8c0,2.4,0,4.9,0,7.3c-0.7,46-1,46.3-46.4,46.3
		c-63,0-64.1-1.2-61.8-65.7C345.1,343.6,345.1,343.6,397.8,343.6z"/>
	<path id="XMLID_15_" class="st2" d="M132.2,459c6.2-20.5,12.8-29.9,28.5-26.5c15.6,3.3,10.6,16.8,12.2,26c2.8,16.1,2.5,32.7-0.5,49
		c-1.7,9.1-2.6,18.9-15.6,17.4c-12.2-1.5-9.2-11.4-9.7-19.1c-0.3-4.6-0.7-9.2-1.3-18.4c-5.4,9.9-8.7,15.9-11.9,21.9
		c-8.6-4-6.4-14-14-19.7c-5.4,7.5-1.9,15.6-2.6,22.8c-0.6,6-0.6,11.9-8.4,12.6c-7.5,0.6-13-2.4-14.5-10.1
		c-4.8-24.4-4.3-48.9,0.2-73.3c1.6-8.3,8.1-8.5,15-9.4C124.1,430.3,127.2,441,132.2,459z"/>
	<path id="XMLID_14_" class="st2" d="M243.2,515c-10.2-2.2-13.2-3-16.2-3.4c-14.2-2.1-35.2,7.4-41.3-4.9
		c-8.8-17.6-0.9-39.9,0.7-60.1c0.6-8.3,7.4-9.9,14.7-9.1c7.9,0.8,8.1,6.7,8.1,12.6c0,8.2,0.2,16.4-0.3,24.6
		c-0.7,10.4,3.4,14.8,14.1,14.6c9.4-0.2,15.9-1.8,15.8-13.3c-0.1-7.5-2.9-17.8,10.5-17.6c13.1,0.2,12,11.1,13.9,19.4
		c0.6,2.4,0.4,4.9,0.6,7.3c3.7,56.2-12.8,70-67.5,57.3c-8.1-1.9-11.1-6-10.6-13.5c0.5-8.5,7.2-7.2,12.7-7.7
		C210.6,520,223.7,523.7,243.2,515z"/>
	<path id="XMLID_13_" class="st2" d="M603.9,201.3c16,16.9,14.9,28.6-3.4,43.2c-18.1,14.4-41,13.1-61.4,20.2
		c-2.2,4.9-4.5,9.4-10.9,4.9c-8.6-17.8,0.1-27.6,15.9-34c9.9-4,20.3-6,30.4-9.1c10.6-3.3,19.9-7.8,21.6-20.4
		C597.7,202.5,599.2,199.2,603.9,201.3z"/>
	<path id="XMLID_12_" class="st3" d="M69.9,413.6c-20.9,4.9-24.7-7.2-25.2-24.3c-0.7-21.1,7.9-26.9,28.9-26.8
		c21.7,0.1,22.5,10.2,23.4,26.9C98.1,410.6,89.9,417.8,69.9,413.6z"/>
	<path id="XMLID_11_" class="st3" d="M106.1,391.9c0-8.8-0.2-13.7,0.1-18.6c0.2-4.2,1.7-8.3,6.6-8.8c4.9-0.5,6.7,2.9,8.1,7.2
		c4.8,15.7,12.1,15.8,19.4,1.9c2.3-4.3,2.2-10.1,8.8-9c6.2,1.1,6.4,6.7,6.5,11.6c0.2,9,0.1,18-0.1,27c-0.1,4.2-1.2,8.3-6.1,9.4
		c-4.9,1.1-7.4-1.8-8.7-6.2c-2.9-9.8-9.6-10.6-16.8-5.7c-5,3.4-3.8,17.5-14.4,10.5C102.3,406.4,106.6,395.9,106.1,391.9z"/>
	<path id="XMLID_10_" class="st3" d="M603.9,201.3c-1.6,1.6-3.2,3.1-4.8,4.7c-1.4,0.8-3.1,2.1-4.4,1.7c-51.4-11.4-103-8.7-154.5-1.2
		c-3-2.9-5.9-5.8-8.9-8.7c48.2-13.3,96.9-16.1,146.2-6.9C587,192.7,596.7,193.8,603.9,201.3z"/>
	<path id="XMLID_9_" class="st3" d="M171.1,359.2c0.9-6.2,0.7-18.8,10.4-16.1c9.4,2.6,4.3,16.1,4.4,24.2c0.1,6.4,0.3,21.6-7.4,19.9
		c-2.4-0.5-4.1-2-5.3-4.1C169.6,376.6,171,364.8,171.1,359.2z"/>
	<path id="XMLID_8_" class="st3" d="M530.6,269.6c2.9-1.7,5.8-3.3,8.6-5c0,8,1.5,16.4-0.1,24c-3.9,17.6-18.5,19.9-32.7,5.7
		c1.7-1.4,3.6-2.3,5.6-2.9C526,290.8,522.3,275,530.6,269.6z"/>
	<path id="XMLID_7_" class="st3" d="M510,294.9c-1.2-0.3-2.4-0.4-3.6-0.6c-0.4-9.6-0.8-19.2-1.2-28.8c7.4-3,4.6-9.6,5.1-15
		C530.7,265.5,516.7,280.2,510,294.9z"/>
	<path id="XMLID_6_" class="st4" d="M608.4,392.5c-10.6-1.2-23.7,2.2-23-12.7c0.7-14.5,13.8-10.9,22.9-10.9
		c8.3-0.1,20-3.3,20.3,10.6C628.9,395,615.9,390.7,608.4,392.5z"/>
	<path id="XMLID_5_" class="st5" d="M510,294.9c-6.1-14.8,14-29.5,0.3-44.4c-10.8-17.3-31.4-17.9-46.7-27.6
		c-8.1-5.1-15.7-10.9-23.6-16.4c52.9-21.2,105.9-17.6,159-0.6c10.7,13.9-0.7,19.4-10.3,23c-12.8,4.8-26.4,7.4-39.8,10.6
		c-16.3,3.9-23.6,13.1-18.4,30C525.9,279.8,539.9,305.1,510,294.9z"/>
	<path id="XMLID_4_" class="st6" d="M417.3,396.8c0.2,13.6,3.9,27.3-19.1,27.3c-21.6,0-21-11.4-20.7-26.3c0.3-14.8-2.6-29,21.1-28.9
		C421.9,369.1,417,383.7,417.3,396.8z"/>
	<path id="XMLID_3_" class="st7" d="M71.4,375.1c9.4,2,10.1,9,10,16.5c-0.1,8-4,12.2-11.9,10.8c-10.2-1.8-7.8-10.4-7.9-17.2
		C61.5,378.8,64.1,374.5,71.4,375.1z"/>
</g>
<path id="XMLID_21_" class="st3" d="M192.7,402.6c0-1.1-0.8-2.6-4.6-3.8c-1.8-0.6-4.1-1-6.5-1.2c0.1-0.4,0.3-0.8,0.5-1.2
	c1.2-1.6,1.2-3.8,0-5.5c-0.2-0.3-0.6-0.4-0.9-0.2c-0.3,0.2-0.4,0.6-0.2,0.9c0,0,0,0,0,0c0.9,1.2,0.9,2.7,0,3.9
	c-0.4,0.6-0.7,1.2-0.8,1.9c-0.8,0-1.5-0.1-2.3-0.1c0.1-0.4,0.3-0.7,0.5-1c1.2-1.6,1.2-3.8,0-5.5c-0.2-0.3-0.6-0.4-0.9-0.2
	c-0.3,0.2-0.4,0.6-0.2,0.9c0,0,0,0,0,0c0.9,1.2,0.9,2.7,0,3.9c-0.4,0.6-0.7,1.2-0.8,1.8c-0.8,0-1.6,0.1-2.4,0.1
	c0.1-0.4,0.3-0.8,0.5-1.2c1.2-1.6,1.2-3.8,0-5.5c0,0,0,0,0,0c-0.2-0.3-0.6-0.3-0.9-0.1c-0.3,0.2-0.3,0.6-0.1,0.9
	c0.9,1.2,0.9,2.7,0,3.9c-0.5,0.6-0.8,1.4-0.9,2.1c-1.9,0.2-3.6,0.6-5.1,1.1c-3.8,1.2-4.6,2.8-4.6,3.8c0,0,0,0,0,0.1
	c0,3.8,1.6,7.3,4.4,10c2.8,2.7,6.5,4.2,10.5,4.2s7.7-1.5,10.5-4.2C191.1,410,192.7,406.5,192.7,402.6
	C192.7,402.7,192.7,402.7,192.7,402.6z M167.9,400.1c1.4-0.4,3-0.8,4.7-1c0.1,0.7,0.4,1.4,0.9,2c0.1,0.2,0.3,0.3,0.5,0.3
	c0.1,0,0.3,0,0.4-0.1c0.3-0.2,0.4-0.6,0.1-0.9c-0.3-0.4-0.5-0.9-0.6-1.4c0.8-0.1,1.5-0.1,2.3-0.1c0.1,0.8,0.4,1.6,0.9,2.3
	c0.1,0.2,0.3,0.3,0.5,0.3c0.1,0,0.3,0,0.4-0.1c0.3-0.2,0.4-0.6,0.1-0.9c-0.3-0.5-0.5-1-0.6-1.5c0,0,0.1,0,0.1,0c0.8,0,1.5,0,2.3,0.1
	c0.1,0.8,0.4,1.6,0.9,2.3c0.1,0.2,0.3,0.3,0.5,0.3c0.1,0,0.3,0,0.4-0.1c0.3-0.2,0.4-0.6,0.1-0.9c-0.3-0.4-0.5-0.9-0.6-1.4
	c2.3,0.2,4.4,0.6,6.2,1.1c2.3,0.7,3.7,1.7,3.7,2.6c0,0.8-1.1,1.6-2.9,2.3c-2.8-0.9-6.6-1.5-10.6-1.5c-4,0-7.9,0.5-10.6,1.5
	c-1.8-0.7-2.9-1.5-2.9-2.3C164.3,401.8,165.7,400.8,167.9,400.1L167.9,400.1z M186,405.6c-2.4,0.6-5.2,0.8-8.2,0.8
	c-3,0-5.9-0.3-8.2-0.8c2.4-0.5,5.2-0.9,8.2-0.9C180.8,404.8,183.6,405.1,186,405.6z M177.8,415.5c-6.6,0-12.1-4.5-13.3-10.5
	c0.7,0.5,1.7,1,3,1.4c2.7,0.9,4.4,1.4,8.2,1.4c3.9,0,9.5-0.5,12.2-1.4c1.4-0.4,2.3-0.9,3-1.4C189.9,411,184.4,415.5,177.8,415.5
	L177.8,415.5z"/>
</svg>
